<?xml version="1.0" encoding="utf-8"?>
<!-- Generator: Adobe Illustrator 23.0.6, SVG Export Plug-In . SVG Version: 6.00 Build 0)  -->
<svg version="1.1" id="Ebene_1" xmlns="http://www.w3.org/2000/svg" xmlns:xlink="http://www.w3.org/1999/xlink" x="0px" y="0px"
	 viewBox="0 0 168 168" style="enable-background:new 0 0 168 168;" xml:space="preserve">
<style type="text/css">
	.st0{fill:#698D1F;}
	.st1{fill:#D9EB94;}
	.st2{fill:#BCCE6A;}
</style>
<g>
	<path class="st0" d="M163.8,78c-1.3-17.4-8.1-33.2-18.8-45.7c1.1-2.5,0.6-5.4-1.4-7.5c-2-2-5-2.5-7.5-1.4
		C123.7,12.6,107.9,5.7,90.6,4.3c-1-2.5-3.4-4.3-6.3-4.3C81.4,0,79,1.8,78,4.3C60.6,5.6,44.8,12.4,32.3,23c-2.5-1.1-5.4-0.6-7.5,1.4
		c-2,2-2.5,5-1.4,7.5C12.6,44.3,5.7,60.1,4.3,77.5c-2.5,1-4.3,3.4-4.3,6.3C0,86.6,1.8,89,4.3,90c1.3,17.4,8.1,33.2,18.8,45.7
		c-1.1,2.5-0.6,5.4,1.4,7.5c1.3,1.3,3,2,4.8,2c0.9,0,1.8-0.2,2.7-0.6c12.5,10.7,28.2,17.6,45.6,19.1c1,2.5,3.4,4.3,6.3,4.3
		s5.3-1.8,6.3-4.3c17.4-1.3,33.2-8.1,45.7-18.8c0.9,0.4,1.8,0.6,2.7,0.6c1.7,0,3.5-0.6,4.8-2c2-2,2.5-5,1.4-7.5
		c10.7-12.4,17.6-28.2,19.1-45.6c2.5-1,4.3-3.4,4.3-6.3C168,81.4,166.3,79,163.8,78z"/>
	<g>
		<path class="st0" d="M161.3,77.5l-60.9-0.2l43.2-42.9c2.6-2.6,2.7-6.9,0-9.6c-2.6-2.6-6.9-2.7-9.6,0L90.8,67.7L91,6.8
			C91,3,88,0,84.3,0c-3.7,0-6.8,3-6.8,6.7l-0.2,60.9L34.4,24.4c-2.6-2.6-6.9-2.7-9.6,0c-2.6,2.6-2.7,6.9,0,9.6l42.9,43.2L6.8,77
			C3,77,0,80,0,83.7s3,6.8,6.7,6.8l60.9,0.2l-43.2,42.9c-2.6,2.6-2.7,6.9,0,9.6c1.3,1.3,3,2,4.8,2c1.7,0,3.5-0.6,4.8-2l43.2-42.9
			L77,161.2c0,3.7,3,6.8,6.7,6.8c3.7,0,6.8-3,6.8-6.7l0.2-60.9l42.9,43.2c1.3,1.3,3,2,4.8,2s3.5-0.6,4.8-2c2.6-2.6,2.7-6.9,0-9.6
			l-42.9-43.2l60.9,0.2c3.7,0,6.8-3,6.8-6.7C168,80.6,165,77.5,161.3,77.5z"/>
		<g>
			<circle class="st0" cx="84" cy="84" r="80"/>
		</g>
	</g>
	<g>
		<circle class="st1" cx="84" cy="84" r="70"/>
	</g>
	<g>
		<g>
			<circle class="st2" cx="84" cy="84" r="40"/>
		</g>
		<g>
			<g>
				<path class="st1" d="M79.9,102.8c-0.4-0.4-0.4-1,0-1.4l1.2-1.2c0.4-0.4,0.4-1,0-1.4l-1.2-1.2c-0.4-0.4-0.4-1,0-1.4l0.8-0.8
					c0.4-0.4,1-0.4,1.4,0l1.2,1.2c0.4,0.4,1,0.4,1.4,0l1.2-1.2c0.4-0.4,1-0.4,1.4,0l0.8,0.8c0.4,0.4,0.4,1,0,1.4l-1.2,1.2
					c-0.4,0.4-0.4,1,0,1.4l1.2,1.2c0.4,0.4,0.4,1,0,1.4l-0.8,0.8c-0.4,0.4-1,0.4-1.4,0l-1.2-1.2c-0.4-0.4-1-0.4-1.4,0l-1.2,1.2
					c-0.4,0.4-1,0.4-1.4,0L79.9,102.8z"/>
			</g>
		</g>
		<g>
			<g>
				<path class="st1" d="M89.6,112.6c-0.4-0.4-0.4-1,0-1.4l1.2-1.2c0.4-0.4,0.4-1,0-1.4l-1.2-1.2c-0.4-0.4-0.4-1,0-1.4l0.8-0.8
					c0.4-0.4,1-0.4,1.4,0l1.2,1.2c0.4,0.4,1,0.4,1.4,0l1.2-1.2c0.4-0.4,1-0.4,1.4,0l0.8,0.8c0.4,0.4,0.4,1,0,1.4l-1.2,1.2
					c-0.4,0.4-0.4,1,0,1.4l1.2,1.2c0.4,0.4,0.4,1,0,1.4l-0.8,0.8c-0.4,0.4-1,0.4-1.4,0l-1.2-1.2c-0.4-0.4-1-0.4-1.4,0l-1.2,1.2
					c-0.4,0.4-1,0.4-1.4,0L89.6,112.6z"/>
			</g>
		</g>
		<g>
			<g>
				<path class="st1" d="M70.2,112.5c-0.4-0.4-0.4-1,0-1.4l1.2-1.2c0.4-0.4,0.4-1,0-1.4l-1.2-1.2c-0.4-0.4-0.4-1,0-1.4l0.8-0.8
					c0.4-0.4,1-0.4,1.4,0l1.2,1.2c0.4,0.4,1,0.4,1.4,0l1.2-1.2c0.4-0.4,1-0.4,1.4,0l0.8,0.8c0.4,0.4,0.4,1,0,1.4l-1.2,1.2
					c-0.4,0.4-0.4,1,0,1.4l1.2,1.2c0.4,0.4,0.4,1,0,1.4l-0.8,0.8c-0.4,0.4-1,0.4-1.4,0l-1.2-1.2c-0.4-0.4-1-0.4-1.4,0l-1.2,1.2
					c-0.4,0.4-1,0.4-1.4,0L70.2,112.5z"/>
			</g>
		</g>
		<g>
			
				<rect x="37.8" y="80.5" transform="matrix(0.7094 -0.7048 0.7048 0.7094 -33.3523 83.0404)" class="st1" width="92.4" height="3"/>
		</g>
		<g>
			
				<rect x="82.5" y="37.5" transform="matrix(0.7094 -0.7048 0.7048 0.7094 -33.3523 83.0409)" class="st1" width="3" height="88.9"/>
		</g>
		<g>
			<g>
				<path class="st1" d="M103.6,86.5c-0.4,0.4-1,0.4-1.4,0l-1.2-1.2c-0.4-0.4-1-0.4-1.4,0l-1.2,1.2c-0.4,0.4-1,0.4-1.4,0l-0.8-0.8
					c-0.4-0.4-0.4-1,0-1.4l1.2-1.2c0.4-0.4,0.4-1,0-1.4l-1.2-1.2c-0.4-0.4-0.4-1,0-1.4l0.8-0.8c0.4-0.4,1-0.4,1.4,0l1.2,1.2
					c0.4,0.4,1,0.4,1.4,0l1.2-1.2c0.4-0.4,1-0.4,1.4,0l0.8,0.8c0.4,0.4,0.4,1,0,1.4l-1.2,1.2c-0.4,0.4-0.4,1,0,1.4l1.2,1.2
					c0.4,0.4,0.4,1,0,1.4L103.6,86.5z"/>
			</g>
		</g>
		<g>
			<g>
				<path class="st1" d="M113.4,76.7c-0.4,0.4-1,0.4-1.4,0l-1.2-1.2c-0.4-0.4-1-0.4-1.4,0l-1.2,1.2c-0.4,0.4-1,0.4-1.4,0l-0.8-0.8
					c-0.4-0.4-0.4-1,0-1.4l1.2-1.2c0.4-0.4,0.4-1,0-1.4l-1.2-1.2c-0.4-0.4-0.4-1,0-1.4l0.8-0.8c0.4-0.4,1-0.4,1.4,0l1.2,1.2
					c0.4,0.4,1,0.4,1.4,0l1.2-1.2c0.4-0.4,1-0.4,1.4,0l0.8,0.8c0.4,0.4,0.4,1,0,1.4l-1.2,1.2c-0.4,0.4-0.4,1,0,1.4l1.2,1.2
					c0.4,0.4,0.4,1,0,1.4L113.4,76.7z"/>
			</g>
		</g>
		<g>
			<g>
				<path class="st1" d="M113.3,96.1c-0.4,0.4-1,0.4-1.4,0l-1.2-1.2c-0.4-0.4-1-0.4-1.4,0l-1.2,1.2c-0.4,0.4-1,0.4-1.4,0l-0.8-0.8
					c-0.4-0.4-0.4-1,0-1.4l1.2-1.2c0.4-0.4,0.4-1,0-1.4l-1.2-1.2c-0.4-0.4-0.4-1,0-1.4l0.8-0.8c0.4-0.4,1-0.4,1.4,0l1.2,1.2
					c0.4,0.4,1,0.4,1.4,0l1.2-1.2c0.4-0.4,1-0.4,1.4,0l0.8,0.8c0.4,0.4,0.4,1,0,1.4l-1.2,1.2c-0.4,0.4-0.4,1,0,1.4l1.2,1.2
					c0.4,0.4,0.4,1,0,1.4L113.3,96.1z"/>
			</g>
		</g>
		<g>
			<g>
				<path class="st1" d="M64.3,76.7c0.4-0.4,1-0.4,1.4,0l1.2,1.2c0.4,0.4,1,0.4,1.4,0l1.2-1.2c0.4-0.4,1-0.4,1.4,0l0.8,0.8
					c0.4,0.4,0.4,1,0,1.4l-1.2,1.2c-0.4,0.4-0.4,1,0,1.4l1.2,1.2c0.4,0.4,0.4,1,0,1.4l-0.8,0.8c-0.4,0.4-1,0.4-1.4,0l-1.2-1.2
					c-0.4-0.4-1-0.4-1.4,0l-1.2,1.2c-0.4,0.4-1,0.4-1.4,0l-0.8-0.8c-0.4-0.4-0.4-1,0-1.4l1.2-1.2c0.4-0.4,0.4-1,0-1.4l-1.2-1.2
					c-0.4-0.4-0.4-1,0-1.4L64.3,76.7z"/>
			</g>
		</g>
		<g>
			<g>
				<path class="st1" d="M54.5,86.5c0.4-0.4,1-0.4,1.4,0l1.2,1.2c0.4,0.4,1,0.4,1.4,0l1.2-1.2c0.4-0.4,1-0.4,1.4,0l0.8,0.8
					c0.4,0.4,0.4,1,0,1.4l-1.2,1.2c-0.4,0.4-0.4,1,0,1.4l1.2,1.2c0.4,0.4,0.4,1,0,1.4l-0.8,0.8c-0.4,0.4-1,0.4-1.4,0l-1.2-1.2
					c-0.4-0.4-1-0.4-1.4,0l-1.2,1.2c-0.4,0.4-1,0.4-1.4,0l-0.8-0.8c-0.4-0.4-0.4-1,0-1.4l1.2-1.2c0.4-0.4,0.4-1,0-1.4l-1.2-1.2
					c-0.4-0.4-0.4-1,0-1.4L54.5,86.5z"/>
			</g>
		</g>
		<g>
			<g>
				<path class="st1" d="M54.5,67.1c0.4-0.4,1-0.4,1.4,0l1.2,1.2c0.4,0.4,1,0.4,1.4,0l1.2-1.2c0.4-0.4,1-0.4,1.4,0l0.8,0.8
					c0.4,0.4,0.4,1,0,1.4l-1.2,1.2c-0.4,0.4-0.4,1,0,1.4l1.2,1.2c0.4,0.4,0.4,1,0,1.4l-0.8,0.8c-0.4,0.4-1,0.4-1.4,0l-1.2-1.2
					c-0.4-0.4-1-0.4-1.4,0l-1.2,1.2c-0.4,0.4-1,0.4-1.4,0l-0.8-0.8c-0.4-0.4-0.4-1,0-1.4l1.2-1.2c0.4-0.4,0.4-1,0-1.4l-1.2-1.2
					c-0.4-0.4-0.4-1,0-1.4L54.5,67.1z"/>
			</g>
		</g>
		<g>
			<g>
				<path class="st1" d="M88.3,61.4c0.4,0.4,0.4,1,0,1.4L87.1,64c-0.4,0.4-0.4,1,0,1.4l1.2,1.2c0.4,0.4,0.4,1,0,1.4l-0.8,0.8
					c-0.4,0.4-1,0.4-1.4,0l-1.2-1.2c-0.4-0.4-1-0.4-1.4,0l-1.2,1.2c-0.4,0.4-1,0.4-1.4,0L80,68c-0.4-0.4-0.4-1,0-1.4l1.2-1.2
					c0.4-0.4,0.4-1,0-1.4l-1.2-1.2c-0.4-0.4-0.4-1,0-1.4l0.8-0.8c0.4-0.4,1-0.4,1.4,0l1.2,1.2c0.4,0.4,1,0.4,1.4,0l1.2-1.2
					c0.4-0.4,1-0.4,1.4,0L88.3,61.4z"/>
			</g>
		</g>
		<g>
			<g>
				<path class="st1" d="M78.5,51.6c0.4,0.4,0.4,1,0,1.4l-1.2,1.2c-0.4,0.4-0.4,1,0,1.4l1.2,1.2c0.4,0.4,0.4,1,0,1.4L77.7,59
					c-0.4,0.4-1,0.4-1.4,0l-1.2-1.2c-0.4-0.4-1-0.4-1.4,0L72.5,59c-0.4,0.4-1,0.4-1.4,0l-0.8-0.8c-0.4-0.4-0.4-1,0-1.4l1.2-1.2
					c0.4-0.4,0.4-1,0-1.4L70.3,53c-0.4-0.4-0.4-1,0-1.4l0.8-0.8c0.4-0.4,1-0.4,1.4,0l1.2,1.2c0.4,0.4,1,0.4,1.4,0l1.2-1.2
					c0.4-0.4,1-0.4,1.4,0L78.5,51.6z"/>
			</g>
		</g>
		<g>
			<g>
				<path class="st1" d="M97.9,51.7c0.4,0.4,0.4,1,0,1.4l-1.2,1.2c-0.4,0.4-0.4,1,0,1.4l1.2,1.2c0.4,0.4,0.4,1,0,1.4l-0.8,0.8
					c-0.4,0.4-1,0.4-1.4,0l-1.2-1.2c-0.4-0.4-1-0.4-1.4,0l-1.2,1.2c-0.4,0.4-1,0.4-1.4,0l-0.8-0.8c-0.4-0.4-0.4-1,0-1.4l1.2-1.2
					c0.4-0.4,0.4-1,0-1.4L89.7,53c-0.4-0.4-0.4-1,0-1.4l0.8-0.8c0.4-0.4,1-0.4,1.4,0l1.2,1.2c0.4,0.4,1,0.4,1.4,0l1.2-1.2
					c0.4-0.4,1-0.4,1.4,0L97.9,51.7z"/>
			</g>
		</g>
	</g>
</g>
</svg>
